<?xml version="1.0" encoding="UTF-8" standalone="no"?>
<svg
   width="64"
   height="64"
   viewBox="0 0 64 64"
   version="1.1"
   id="svg1610"
   sodipodi:docname="cutie-phone.svg"
   inkscape:version="1.2.2 (b0a8486541, 2022-12-01)"
   xml:space="preserve"
   xmlns:inkscape="http://www.inkscape.org/namespaces/inkscape"
   xmlns:sodipodi="http://sodipodi.sourceforge.net/DTD/sodipodi-0.dtd"
   xmlns="http://www.w3.org/2000/svg"
   xmlns:svg="http://www.w3.org/2000/svg"><sodipodi:namedview
     id="namedview1612"
     pagecolor="#ffffff"
     bordercolor="#666666"
     borderopacity="1.0"
     inkscape:showpageshadow="2"
     inkscape:pageopacity="0.0"
     inkscape:pagecheckerboard="0"
     inkscape:deskcolor="#d1d1d1"
     showgrid="true"
     inkscape:zoom="8.9272231"
     inkscape:cx="-0.61609304"
     inkscape:cy="31.25272"
     inkscape:window-width="1920"
     inkscape:window-height="1011"
     inkscape:window-x="0"
     inkscape:window-y="32"
     inkscape:window-maximized="1"
     inkscape:current-layer="svg1610"><inkscape:grid
       type="xygrid"
       id="grid1878"
       spacingy="4"
       spacingx="4"
       empspacing="4" /></sodipodi:namedview><defs
     id="defs1588"><filter
       id="deepin-music-a"
       width="1.1388646"
       height="1.1518519"
       x="-0.062882096"
       y="-0.066666667"
       filterUnits="objectBoundingBox"><feOffset
         dy="1"
         in="SourceAlpha"
         result="shadowOffsetOuter1"
         id="feOffset1538" /><feGaussianBlur
         in="shadowOffsetOuter1"
         result="shadowBlurOuter1"
         stdDeviation="1.5"
         id="feGaussianBlur1540" /><feComposite
         in="shadowBlurOuter1"
         in2="SourceAlpha"
         operator="out"
         result="shadowBlurOuter1"
         id="feComposite1542" /><feColorMatrix
         in="shadowBlurOuter1"
         result="shadowMatrixOuter1"
         values="0 0 0 0 0   0 0 0 0 0   0 0 0 0 0  0 0 0 0.2 0"
         id="feColorMatrix1544" /><feMerge
         id="feMerge1550"><feMergeNode
           in="shadowMatrixOuter1"
           id="feMergeNode1546" /><feMergeNode
           in="SourceGraphic"
           id="feMergeNode1548" /></feMerge></filter><linearGradient
       id="deepin-music-b"
       x1="98.016%"
       x2="0%"
       y1="38.451%"
       y2="41.845%"><stop
         offset="0%"
         stop-color="#0BA186"
         id="stop1553" /><stop
         offset="100%"
         stop-color="#68C639"
         id="stop1555" /></linearGradient><linearGradient
       id="deepin-music-c"
       x1="2.055%"
       x2="96.944%"
       y1="41.813%"
       y2="34.714%"><stop
         offset="0%"
         stop-color="#417944"
         stop-opacity=".381"
         id="stop1558" /><stop
         offset="100%"
         stop-color="#002A35"
         id="stop1560" /></linearGradient><linearGradient
       id="deepin-music-d"
       x1="50%"
       x2="50%"
       y1="0%"
       y2="98.031%"><stop
         offset="0%"
         stop-color="#8DF34C"
         id="stop1563" /><stop
         offset="100%"
         stop-color="#00CCB3"
         id="stop1565" /></linearGradient><linearGradient
       id="deepin-music-e"
       x1="50%"
       x2="50%"
       y1="0%"
       y2="98.031%"><stop
         offset="0%"
         stop-color="#8DF34C"
         id="stop1568" /><stop
         offset="100%"
         stop-color="#00CCB3"
         id="stop1570" /></linearGradient><linearGradient
       id="deepin-music-h"
       x1="50%"
       x2="50%"
       y1="0%"
       y2="100%"><stop
         offset="0%"
         stop-color="#FFF"
         id="stop1573" /><stop
         offset="100%"
         stop-color="#FFF"
         stop-opacity=".7"
         id="stop1575" /></linearGradient><path
       id="deepin-music-g"
       d="M35.9302044,14.0362092 C35.9766316,14.2799521 36,14.5275258 36,14.7756509 L36,35 C36,37.7614237 33.7614237,40 31,40 C28.2385763,40 26,37.7614237 26,35 C26,32.2385763 28.2385763,30 31,30 C32.1261445,30 33.1653335,30.3723009 34.0011995,31.0005351 L34,17.5701049 C34,16.8425868 33.41023,16.2528168 32.6827119,16.2528168 C32.6059652,16.2528168 32.5293654,16.2595238 32.4537865,16.2728612 L18.0883628,18.807936 C17.4588869,18.91902 17,19.4659774 17,20.1051797 L17,40 C17,42.7614237 14.7614237,45 12,45 C9.23857625,45 7,42.7614237 7,40 C7,37.2385763 9.23857625,35 12,35 C13.1261445,35 14.1653335,35.3723009 15.0011995,36.0005351 L15,17.2701788 C15,15.3727593 16.3485144,13.7431401 18.2124227,13.38811 L31.3086939,10.8935821 C33.4527013,10.4851997 35.521822,11.8922018 35.9302044,14.0362092 Z" /><filter
       id="deepin-music-f"
       width="1.0827586"
       height="1.0994823"
       x="-0.04137931"
       y="-0.035111398"
       filterUnits="objectBoundingBox"><feOffset
         dy="1"
         in="SourceAlpha"
         result="shadowOffsetOuter1"
         id="feOffset1579" /><feGaussianBlur
         in="shadowOffsetOuter1"
         result="shadowBlurOuter1"
         stdDeviation=".5"
         id="feGaussianBlur1581" /><feComposite
         in="shadowBlurOuter1"
         in2="SourceAlpha"
         operator="out"
         result="shadowBlurOuter1"
         id="feComposite1583" /><feColorMatrix
         in="shadowBlurOuter1"
         values="0 0 0 0 0   0 0 0 0 0   0 0 0 0 0  0 0 0 0.1 0"
         id="feColorMatrix1585" /></filter></defs><rect
     style="fill:#5be776;fill-opacity:1;stroke-width:12.3756"
     id="rect1824"
     width="64"
     height="64"
     x="0"
     y="0"
     ry="17.17137" /><path
     style="fill:#ffffff;fill-opacity:1;stroke-width:1.43538"
     id="path997"
     sodipodi:type="arc"
     sodipodi:cx="15.641628"
     sodipodi:cy="45.3041"
     sodipodi:rx="24"
     sodipodi:ry="24"
     sodipodi:start="1.5728655"
     sodipodi:end="4.7093459"
     sodipodi:arc-type="slice"
     d="M 15.591968,69.304049 A 24,24 0 0 1 -8.3583689,45.315787 24,24 0 0 1 15.568594,21.304211 l 0.07303,23.999889 z"
     transform="rotate(-34.19936)" /><path
     style="fill:#5be776;fill-opacity:1;stroke-width:0.771963"
     id="path997-3"
     sodipodi:type="arc"
     sodipodi:cx="16.248371"
     sodipodi:cy="45.075794"
     sodipodi:rx="12.907483"
     sodipodi:ry="12.907483"
     sodipodi:start="4.9741884"
     sodipodi:end="4.8589341"
     sodipodi:arc-type="arc"
     d="M 19.589074,32.608123 A 12.907483,12.907483 0 0 1 28.807111,48.055922 12.907483,12.907483 0 0 1 13.631293,57.715178 12.907483,12.907483 0 0 1 3.5388369,42.823937 12.907483,12.907483 0 0 1 18.133137,32.30666"
     sodipodi:open="true"
     transform="rotate(-34.19936)" /><path
     style="fill:#5be776;fill-opacity:1;stroke-width:1.05662"
     id="path997-3-6"
     sodipodi:type="arc"
     sodipodi:cx="16.404163"
     sodipodi:cy="45.12664"
     sodipodi:rx="17.667059"
     sodipodi:ry="17.667059"
     sodipodi:start="2.0943951"
     sodipodi:end="4.1887902"
     sodipodi:arc-type="slice"
     d="M 7.5706339,60.426762 A 17.667059,17.667059 0 0 1 -1.2628956,45.12664 17.667059,17.667059 0 0 1 7.5706338,29.826519 L 16.404163,45.12664 Z"
     transform="rotate(-34.19936)" /></svg>
